<svg width="33" height="32" viewBox="0 0 33 32" fill="none" xmlns="http://www.w3.org/2000/svg">
<path fill-rule="evenodd" clip-rule="evenodd" d="M7.50839 9.47885C7.23791 9.39096 6.95325 9.56698 6.91102 9.84824L6.40439 13.223C6.33182 13.7065 6.61938 14.1715 7.08429 14.3226L24.3436 19.9304C25.15 20.1925 26.0162 19.7511 26.2783 18.9446C26.5507 18.1063 26.0629 17.2113 25.2108 16.9859L19.8991 15.5805L18.571 6.20729C18.5159 5.81839 18.2441 5.49483 17.8705 5.37345C17.2446 5.17006 16.5913 5.59887 16.5289 6.2541L15.7688 14.2384L8.51258 12.2959L7.80926 9.7921C7.76765 9.64395 7.65474 9.5264 7.50839 9.47885ZM26.3445 22.9521H5.81445V24.5314H26.3445V22.9521Z" fill="#6E7491"/>
</svg>
